<!-- icon666.com - MILLIONS vector ICONS FREE --><svg id="Capa_1" enable-background="new 0 0 512.002 512.002" viewBox="0 0 512.002 512.002" xmlns="http://www.w3.org/2000/svg"><g><g clip-rule="evenodd" fill-rule="evenodd"><path d="m165.941 70h80l19.999-20h70v-20c0-10.995-9-20-20-20h-220c-11 0-20 9-20 20v20h70z" fill="#8690af"></path><path d="m245.942 70h-80l-20-20h-70v362.002h260v-362.002h-70zm-120 40h160v160h-160z" fill="#fff"></path><path d="m125.942 110h160v160h-160z" fill="#ff9eb1"></path><path d="m335.942 412.001h-260v20c0 11 9.005 20 20 20h220c10.995 0 20-9.005 20-20z" fill="#8690af"></path><path d="m335.942 338.084c-47.463-47.464-133.144 6.167-86.551 86.868 21.443 37.141 64.692 71.193 86.551 77.05 21.859-5.857 65.108-39.91 86.551-77.05 46.593-80.701-39.088-134.331-86.551-86.868z" fill="#ff5d7d"></path></g><g><path d="m295.941 270v-160c0-5.523-4.477-10-10-10h-34.996c-13.254.492-13.244 19.513 0 20h24.996v140h-139.999v-140h25.003c13.254-.492 13.244-19.513 0-20h-35.003c-5.523 0-10 4.477-10 10v160c0 5.523 4.477 10 10 10h159.999c5.523 0 10-4.477 10-10z"></path><path d="m205.941 307.333h-80c-13.254.492-13.244 19.513 0 20h80c13.254-.491 13.244-19.513 0-20z"></path><path d="m205.949 120c13.254-.492 13.244-19.513 0-20h-.008c-13.254.494-13.235 19.515.008 20z"></path><path d="m419.212 324.444c-12.758-9.79-28.559-14.804-44.477-14.119-10.19.438-19.907 3.125-28.794 7.899v-288.224c0-16.542-13.458-30-30-30h-220c-16.542 0-30 13.458-30 30v402.001c0 16.542 13.458 30 30 30h168.615c22.674 24.952 50.715 44.815 68.797 49.66 1.696.454 3.481.454 5.177 0 62.116-20.732 153.379-129.094 80.682-187.217zm-188.835 30.223h-104.435c-13.254.492-13.244 19.513 0 20h100.107c-.593 8.43.211 17.575 2.824 27.334h-142.931v-342.001h55.858l17.07 17.071c1.875 1.875 4.419 2.929 7.071 2.929h80c2.652 0 5.196-1.054 7.071-2.929l17.071-17.071h55.858v258.224c-8.887-4.774-18.603-7.461-28.793-7.899-29.195-1.087-55.982 15.963-66.771 44.342zm-134.436-334.667h220c5.514 0 10 4.486 10 10v10h-60c-2.652 0-5.196 1.054-7.071 2.929l-17.07 17.071h-71.716l-17.07-17.071c-1.875-1.875-4.419-2.929-7.071-2.929h-60v-10c-.001-5.514 4.485-10 9.998-10zm0 422.001c-5.514 0-10-4.486-10-10v-10h150.54c3.389 6.902 7.449 13.57 11.97 20zm317.892-22.049c-19.933 34.525-58.587 64.686-77.891 71.576-41.539-15.122-128.841-105.147-71.095-151.217 18.904-14.235 45.389-14.088 64.023 4.844 3.724 3.873 10.419 3.873 14.143 0 20.982-20.984 47.896-17.22 64.024-4.844 17.681 13.567 28.751 41.613 6.796 79.641z"></path></g></g></svg>